<svg xmlns="http://www.w3.org/2000/svg" fill="currentColor" viewBox="0 0 24 24">
  <path d="M12 .5a12 12 0 00-3.8 
23.4c.6.1.8-.3.8-.6v-2.1c-3.3.7-4-1.6-4-1.6-.5-1.1-1.2-1.4-1.2-1.4-1-.7.1-.7.1-.7 1.1.1 
1.7 1.2 1.7 1.2 1 .1.8-.8.8-.8-.5-.9-1.1-1.4-1.1-1.4 2.7-.3 
4.5 1.2 4.5 1.2.4-.8.8-1.3 1.1-1.6-2.6-.3-5.3-1.3-5.3-5.7 
0-1.3.5-2.5 1.2-3.3-.1-.3-.5-1.6.1-3.4 0 
0 1-.3 3.3 1.2a11.3 11.3 0 016 0c2.3-1.5 3.3-1.2 
3.3-1.2.6 1.8.2 3.1.1 3.4.8.8 1.2 2 1.2 3.3 0 
4.5-2.7 5.3-5.3 5.6.4.4.8 1.1.8 2.2v3.3c0 
.3.2.7.8.6A12 12 0 0012 .5z"></path>
</svg>
